{"title":"Comedy Nights with Kapil - 6th April - Amitabh Bachchan &amp; Bo","uid":9923098,"size":541401479,"categoryP":"video","categoryS":"other","magnet":"?xt=urn:btih:f5c06ad36bff5806617659a4f0f953d05f150da6&amp;dn=Comedy+Nights+with+Kapil+-+6th+April+-+Amitabh+Bachchan+%26amp%3B+Bo&amp;tr=udp%3A%2F%2Ftracker.openbittorrent.com%3A80&amp;tr=udp%3A%2F%2Fopen.demonii.com%3A1337&amp;tr=udp%3A%2F%2Ftracker.coppersurfer.tk%3A6969&amp;tr=udp%3A%2F%2Fexodus.desync.com%3A6969","seeders":0,"leechers":1,"uploader":"lazypirate..","files":1,"time":1397022675,"description":"[IMG]http://s27.postimg.org/yf4gltour/vlcsnap_2014_04_09_02h12m15s91.png[/IMG]\n\nGeneral\nComplete name : Comedy Nights with Kapil - 6th April - Amitabh Bachchan &amp; Boman 480p HQ DOM.mp4\nFormat : MPEG-4\nFormat profile : Base Media\nCodec ID : isom\nFile size : 516 MiB\nDuration : 1h 4mn\nOverall bit rate : 1 124 Kbps\nWriting application : Lavf54.63.104\n\nVideo\nID : 1\nFormat : AVC\nFormat/Info : Advanced Video Codec\nFormat profile : &lt;a class=&quot;__cf_email__&quot; href=&quot;/cdn-cgi/l/email-protection&quot; data-cfemail=&quot;7f321e16113f334c514f&quot;&gt;[email&amp;#160;protected]&lt;/a&gt;&lt;script cf-hash='f9e31' type=&quot;text/javascript&quot;&gt;\n/* &lt;![CDATA[ */!function(){try{var t=&quot;currentScript&quot;in document?document.currentScript:function(){for(var t=document.getElementsByTagName(&quot;script&quot;),e=t.length;e--;)if(t[e].getAttribute(&quot;cf-hash&quot;))return t[e]}();if(t&amp;&amp;t.previousSibling){var e,r,n,i,c=t.previousSibling,a=c.getAttribute(&quot;data-cfemail&quot;);if(a){for(e=&quot;&quot;,r=parseInt(a.substr(0,2),16),n=2;a.length-n;n+=2)i=parseInt(a.substr(n,2),16)^r,e+=String.fromCharCode(i);e=document.createTextNode(e),c.parentNode.replaceChild(e,c)}}}catch(u){}}();/* ]]&gt; */&lt;/script&gt;\nFormat settings, CABAC : Yes\nFormat settings, ReFrames : 3 frames\nCodec ID : avc1\nCodec ID/Info : Advanced Video Coding\nDuration : 1h 4mn\nBit rate : 993 Kbps\nWidth : 854 pixels\nHeight : 480 pixels\nDisplay aspect ratio : 16:9\nFrame rate mode : Constant\nFrame rate : 25.000 fps\nColor space : YUV\nChroma subsampling : 4:2:0\nBit depth : 8 bits\nScan type : Progressive\nBits/(Pixel*Frame) : 0.097\nStream size : 456 MiB (88%)\n\nAudio\nID : 2\nFormat : AAC\nFormat/Info : Advanced Audio Codec\nFormat profile : LC\nCodec ID : 40\nDuration : 1h 4mn\nBit rate mode : Constant\nBit rate : 126 Kbps\nChannel(s) : 2 channels\nChannel positions : Front: L R\nSampling rate : 44.1 KHz\nCompression mode : Lossy\nStream size : 57.7 MiB (11%)\n\n[IMG]http://s29.postimg.org/w7vkwechz/vlcsnap_2014_04_09_02h28m12s39.png[/IMG]\n[IMG]http://s29.postimg.org/qxqm53s93/vlcsnap_2014_04_09_02h28m26s176.png[/IMG]\n[IMG]http://s29.postimg.org/3xp0pw0qv/vlcsnap_2014_04_09_02h28m51s173.png[/IMG]\n[IMG]http://s29.postimg.org/yhor49rrb/vlcsnap_2014_04_09_02h29m30s47.png[/IMG]\n[IMG]http://s29.postimg.org/mbzjtvd1j/vlcsnap_2014_04_09_02h30m31s144.png[/IMG]\n[IMG]http://s29.postimg.org/z5xln7qh3/vlcsnap_2014_04_09_02h31m10s25.png[/IMG]","torrent":{"xt":"urn:btih:f5c06ad36bff5806617659a4f0f953d05f150da6","amp;dn":"Comedy+Nights+with+Kapil+-+6th+April+-+Amitabh+Bachchan+%26amp%3B+Bo","amp;tr":["udp%3A%2F%2Ftracker.openbittorrent.com%3A80","udp%3A%2F%2Fopen.demonii.com%3A1337","udp%3A%2F%2Ftracker.coppersurfer.tk%3A6969","udp%3A%2F%2Fexodus.desync.com%3A6969"],"infoHash":"f5c06ad36bff5806617659a4f0f953d05f150da6","infoHashBuffer":{"type":"Buffer","data":[245,192,106,211,107,255,88,6,97,118,89,164,240,249,83,208,95,21,13,166]},"announce":[],"urlList":[]}}